PathFileType	4	(X/Y/Z)	C:\Users\Basilio\Documents\Thesis Gigler\squatting_fais\c3dfiles\058\SJ_pre3\markers_experimental.trc
DataRate	CameraRate	NumFrames	NumMarkers	Units	OrigDataRate	OrigDataStartFrame	OrigNumFrames
200.000000	200.000000	4	61	mm	200.000000	1225	1400
Frame#	Time	FHD			LBHD			RBHD			C7			T10			CLAV			LSHO			LUUPA			LMUPA			LDUPA			LLEP			LMEP			LRAD			LUL			LRFIN			RSHO			RUPA1			RMUPA			RDUPA			RLEP			RMEP			RRAD			RUL			RUFIN			LASI			RASI			USACR			LSACR			RSACR			LTHI1			LTHI2			LTHI3			LTHI4			LLFC			LMFC			LTIB1			LTIB2			LTIB3			LTIB4			LLMAL			LMMAL			LHEE			LMT1			LMT2			LMT5			RTHI			RTHI2			RTHI3			RTHI4			RLFC			RMFC			RTIB1			RTIB2			RTIB3			RTIB4			RLMAL			RMMAL			RHEE			RMT1			RMT2			RMT5			
		X1	Y1	Z1	X2	Y2	Z2	X3	Y3	Z3	X4	Y4	Z4	X5	Y5	Z5	X6	Y6	Z6	X7	Y7	Z7	X8	Y8	Z8	X9	Y9	Z9	X10	Y10	Z10	X11	Y11	Z11	X12	Y12	Z12	X13	Y13	Z13	X14	Y14	Z14	X15	Y15	Z15	X16	Y16	Z16	X17	Y17	Z17	X18	Y18	Z18	X19	Y19	Z19	X20	Y20	Z20	X21	Y21	Z21	X22	Y22	Z22	X23	Y23	Z23	X24	Y24	Z24	X25	Y25	Z25	X26	Y26	Z26	X27	Y27	Z27	X28	Y28	Z28	X29	Y29	Z29	X30	Y30	Z30	X31	Y31	Z31	X32	Y32	Z32	X33	Y33	Z33	X34	Y34	Z34	X35	Y35	Z35	X36	Y36	Z36	X37	Y37	Z37	X38	Y38	Z38	X39	Y39	Z39	X40	Y40	Z40	X41	Y41	Z41	X42	Y42	Z42	X43	Y43	Z43	X44	Y44	Z44	X45	Y45	Z45	X46	Y46	Z46	X47	Y47	Z47	X48	Y48	Z48	X49	Y49	Z49	X50	Y50	Z50	X51	Y51	Z51	X52	Y52	Z52	X53	Y53	Z53	X54	Y54	Z54	X55	Y55	Z55	X56	Y56	Z56	X57	Y57	Z57	X58	Y58	Z58	X59	Y59	Z59	X60	Y60	Z60	X61	Y61	Z61	

1226	6.125	-115.7152099609375	1774.4951171875	-803.6416625976565	-274.6089172363282	1716.793334960938	-867.842712402344	-112.9949493408203	1782.050659179688	-946.222106933594	-290.7815856933594	1566.181518554688	-891.096130371094	-302.9572753906251	1254.877807617188	-878.9735107421877	-132.3377838134766	1514.816650390625	-868.373474121094	-138.9501037597657	1575.06005859375	-1040.9716796875	-275.4186706542969	1459.036865234375	-1197.479736328125	-247.5482788085938	1418.67431640625	-1206.796264648438	-299.8551025390626	1401.814575195313	-1232.579223632813	-330.5670471191407	1326.738647460938	-1262.699096679688	-383.3486022949219	1322.73095703125	-1209.45556640625	-284.2055664062501	1135.43505859375	-1070.367065429688	-208.9620056152344	1152.552368164063	-1068.594970703125	-256.7893371582032	1084.29345703125	-1127.652465820313	-187.2072448730469	1587.335205078125	-702.3097534179689	-341.6197814941407	1458.8671875	-574.6625366210939	-308.9263000488282	1422.34716796875	-563.0759277343751	-358.2482604980469	1398.968872070313	-540.0558471679689	-388.1943359375001	1338.994506835938	-515.3159179687501	-432.286834716797	1311.0556640625	-589.2243652343751	-251.3904876708985	1160.547485351563	-661.9890136718751	-236.2133331298829	1117.14306640625	-595.2680664062501	-177.4238433837891	1135.3544921875	-682.2549438476564	-134.3606567382813	1042.4501953125	-996.2607421875002	-136.1437225341797	1044.42138671875	-757.0667724609376	-318.9008789062501	1138.37451171875	-867.9772949218752	-327.9114990234376	1107.066772460938	-895.745544433594	-326.7941894531251	1106.521362304688	-838.6186523437502	-226.2569580078126	773.480651855469	-1092.766235351563	-206.9353790283204	690.4311523437501	-1095.991821289063	-160.6231231689453	686.1186523437501	-1077.736206054688	-242.0134887695313	642.4257202148439	-1091.750366210938	-255.9241333007813	541.3403930664064	-1089.869750976563	-218.8348388671876	517.5107421875001	-973.3723144531252	-219.5793151855469	396.7962036132814	-1077.926391601563	-284.8597106933594	375.3659362792969	-1128.702026367188	-245.7613677978516	359.3332519531251	-1112.788696289063	-255.6417083740235	276.2266540527344	-1095.706787109375	-354.0343933105469	93.69475555419923	-1118.106811523438	-310.0257263183594	94.30068969726564	-1033.81005859375	-406.5435485839845	51.20780563354494	-1059.858764648438	-184.3780059814453	60.2486915588379	-1101.679077148438	-192.5326385498047	60.12620162963869	-1148.5927734375	-252.1270446777344	37.00051498413087	-1189.880737304688	-258.1001892089844	852.3850097656252	-670.9837036132814	-223.6581726074219	796.932312011719	-657.2589721679689	-190.3507080078125	795.7214355468752	-658.7347412109376	-254.3382568359376	718.3906860351564	-666.0040283203126	-256.1694641113282	539.6978149414064	-657.9534912109376	-212.1236267089844	504.6332397460939	-781.6599121093752	-216.6215820312501	319.7481689453126	-702.6244506835939	-265.3343200683594	258.5092163085938	-626.0316162109376	-230.0101470947266	244.4693603515626	-655.5576782226564	-241.1637115478516	195.0669860839844	-681.9413452148439	-311.9730224609376	96.97552490234378	-628.3953857421876	-271.5741577148438	101.3670730590821	-714.6676025390626	-369.3966979980469	50.41793823242189	-689.7581176757814	-152.2030029296875	55.29846191406251	-656.3351440429689	-159.7830963134766	61.51377487182619	-604.9361572265626	-211.3592224121094	27.96827125549317	-559.6536254882814	
1227	6.13	-115.6090621948242	1774.543334960938	-803.5830078125002	-274.5941467285157	1717.013427734375	-867.754821777344	-112.9142990112305	1782.049194335938	-946.148376464844	-290.9378356933594	1566.184814453125	-890.972106933594	-302.9480895996094	1254.90380859375	-878.8289794921877	-132.3411254882813	1514.970703125	-868.268981933594	-138.9620513916016	1575.127197265625	-1040.857666015625	-275.3106079101563	1459.29541015625	-1197.624145507813	-247.4539794921876	1418.890014648438	-1206.877319335938	-299.9102172851563	1401.980224609375	-1232.679931640625	-330.3334045410157	1326.988403320313	-1262.892944335938	-383.3714599609376	1322.9169921875	-1209.593505859375	-284.2156982421876	1135.923217773438	-1070.435913085938	-209.0980377197266	1152.667724609375	-1068.52294921875	-256.8902893066407	1084.556274414063	-1127.703979492188	-187.3267211914063	1587.475341796875	-702.2429809570314	-342.0944213867188	1458.911376953125	-574.3994140625001	-309.1236267089844	1422.639282226563	-562.7852783203126	-358.4119873046876	1399.042724609375	-539.8820800781251	-388.1904602050782	1339.01953125	-515.0415039062501	-432.1789855957032	1311.002563476563	-588.8890991210939	-251.3874511718751	1160.640380859375	-661.8146362304689	-235.9458465576172	1117.266967773438	-595.0700073242189	-177.2521362304688	1135.575317382813	-682.0940551757814	-134.3792419433594	1042.555541992188	-996.1477661132815	-136.0384368896485	1044.709106445313	-757.0681152343751	-318.8636169433594	1138.561767578125	-867.840515136719	-327.9276123046876	1107.224609375	-895.586120605469	-326.6961669921876	1106.714965820313	-838.4134521484377	-226.3246612548829	773.5556640625002	-1092.6826171875	-206.8952636718751	690.4572753906251	-1095.86474609375	-160.7736053466797	686.1383666992189	-1077.685791015625	-242.0510864257813	642.5212402343751	-1091.590087890625	-255.9859466552735	541.4143066406251	-1089.859008789063	-218.7599487304688	517.6080322265626	-973.3452148437502	-219.7511596679688	396.7854003906251	-1077.851806640625	-284.9067687988282	375.4428710937501	-1128.671508789063	-245.7880401611329	359.4741821289063	-1112.761596679688	-255.6521148681641	276.2589111328126	-1095.741821289063	-353.9536743164063	93.74472808837892	-1118.101440429688	-310.0407714843751	94.31111907958986	-1033.808349609375	-406.4556579589845	51.26161575317384	-1059.82861328125	-184.3403625488282	60.18113708496095	-1101.640380859375	-192.4684295654297	60.15128326416017	-1148.58740234375	-252.1280822753907	37.02999114990235	-1189.86767578125	-257.9042663574219	852.4184570312502	-670.8286743164064	-223.4762878417969	796.8125000000002	-657.1505737304689	-190.2296600341797	795.7468261718752	-658.6437988281251	-254.2218170166016	718.2739257812501	-665.8741455078126	-255.9553222656251	539.7093505859376	-657.8190307617189	-211.7724304199219	504.762664794922	-781.505554199219	-216.5501098632813	319.7400817871094	-702.5204467773439	-265.2571716308594	258.4625854492188	-625.9603271484376	-229.9685668945313	244.5021514892579	-655.3917846679689	-241.1231842041016	195.1506347656251	-681.9197387695314	-312.0252380371094	97.014762878418	-628.3811035156251	-271.5419311523438	101.3954162597657	-714.6466674804689	-369.4048156738282	50.42636871337892	-689.7234497070314	-152.1771697998047	55.28178787231447	-656.3751220703126	-159.8069305419922	61.5043067932129	-604.9468383789064	-211.3569946289063	27.98973083496094	-559.6536865234376	
1228	6.135	-115.5604553222657	1774.521850585938	-803.5269165039065	-274.7234497070313	1717.095703125	-867.6119384765627	-112.8995819091797	1782.0693359375	-946.068054199219	-291.0367736816407	1566.310180664063	-890.8511962890627	-302.9517211914063	1254.955810546875	-878.639831542969	-132.5410461425782	1515.208129882813	-868.1318359375002	-139.0199127197266	1575.163330078125	-1040.838989257813	-275.2978515625001	1459.48095703125	-1197.7314453125	-247.3949279785157	1419.0693359375	-1206.946166992188	-299.8243408203126	1402.308471679688	-1232.849243164063	-330.2399902343751	1327.369995117188	-1263.050903320313	-383.3776550292969	1323.18896484375	-1209.84521484375	-284.2988891601563	1136.18505859375	-1070.538818359375	-209.2354431152344	1152.837890625	-1068.435180664063	-257.0804443359376	1084.834350585938	-1127.766723632813	-187.479736328125	1587.620971679688	-702.1248168945314	-342.0930175781251	1459.108032226563	-574.1522216796876	-309.1199035644532	1422.787231445313	-562.5692749023439	-358.4462890625001	1399.121948242188	-539.6462402343751	-388.1665954589845	1339.012939453125	-514.8190307617189	-432.080047607422	1310.92578125	-588.6047973632814	-251.1772460937501	1160.788330078125	-661.5622558593751	-235.8281555175782	1117.434692382813	-594.8421020507814	-177.2204895019532	1135.793579101563	-681.8726806640626	-134.3956298828125	1042.66796875	-996.0149536132815	-135.9697570800782	1044.623657226563	-756.9955444335939	-318.8903808593751	1138.778076171875	-867.6519165039065	-327.9402770996094	1107.378540039063	-895.394470214844	-326.6616821289063	1106.765869140625	-838.2476196289065	-226.3715362548829	773.6032714843752	-1092.544799804688	-206.9718017578126	690.4964599609376	-1095.753051757813	-160.669189453125	686.2241210937501	-1077.616943359375	-242.0918273925782	642.5608520507814	-1091.543579101563	-256.0805053710938	541.5357666015626	-1089.787841796875	-218.6629638671876	517.7192993164064	-973.393005371094	-219.8636322021485	396.7902221679689	-1077.750610351563	-284.9385681152344	375.5103149414063	-1128.602783203125	-245.8520660400391	359.5635986328126	-1112.650512695313	-255.6733856201172	276.3418273925782	-1095.730346679688	-354.0528869628907	93.7494354248047	-1118.08740234375	-310.0194702148438	94.32723236083986	-1033.805786132813	-406.498504638672	51.26148605346681	-1059.803955078125	-184.3279571533203	60.17444229125978	-1101.68408203125	-192.4427795410157	60.11708450317384	-1148.603149414063	-252.0851745605469	37.06003189086915	-1189.8671875	-257.8046569824219	852.454284667969	-670.6519775390626	-223.3027038574219	796.9407958984377	-656.9562988281251	-190.1222839355469	795.8385009765627	-658.5478515625001	-254.0286865234376	718.2315063476564	-665.7401733398439	-255.7913055419922	539.7335815429689	-657.6190185546876	-211.5814514160157	504.7609252929689	-781.3769531250002	-216.4974365234376	319.7355651855469	-702.3535766601564	-265.1956176757813	258.5721740722657	-625.8943481445314	-229.9738464355469	244.5019073486329	-655.3098144531251	-241.106430053711	195.1774444580079	-681.7929687500001	-312.0191955566407	97.04394531250003	-628.3680419921876	-271.5147399902344	101.4612426757813	-714.5906372070314	-369.4032897949219	50.46678543090822	-689.6993408203126	-152.1745300292969	55.27421951293947	-656.3690185546876	-159.7617797851563	61.51602935791017	-604.9264526367189	-211.3524780273438	27.98578453063966	-559.6498413085939	
1229	6.140000000000001	-115.5277175903321	1774.635864257813	-803.4135742187502	-274.7339172363282	1717.203247070313	-867.480651855469	-112.9117813110352	1782.041870117188	-946.0479125976565	-291.1166687011719	1566.459350585938	-890.796813964844	-302.9927978515626	1255.00830078125	-878.498474121094	-132.6450347900391	1515.460693359375	-867.9879150390627	-139.0144500732422	1575.283081054688	-1040.686767578125	-275.3870239257813	1459.638305664063	-1197.816284179688	-247.4164276123047	1419.309204101563	-1207.050415039063	-299.7275695800782	1402.621704101563	-1233.041015625	-330.1564331054688	1327.789794921875	-1263.093383789063	-383.3270263671876	1323.598388671875	-1210.091674804688	-284.5197143554688	1136.47998046875	-1070.621948242188	-209.3959045410157	1153.065551757813	-1068.36572265625	-257.3126525878907	1085.104125976563	-1127.828247070313	-187.7650146484375	1587.981079101563	-701.8139648437501	-342.1393127441407	1459.194580078125	-573.8894042968751	-309.1463623046876	1422.971435546875	-562.3428344726564	-358.4308471679688	1399.256225585938	-539.2775268554689	-388.0055541992189	1339.129516601563	-514.5857543945314	-432.0214843750001	1310.957397460938	-588.2071533203126	-251.0434722900391	1161.07861328125	-661.3989868164064	-235.6743927001954	1117.7412109375	-594.6406860351564	-177.168197631836	1135.9609375	-681.6957397460939	-134.5442657470703	1042.722412109375	-995.8680419921877	-135.7468414306641	1044.744140625	-756.9979248046876	-318.8551940917969	1138.930786132813	-867.504821777344	-327.9524230957032	1107.614135742188	-895.1779785156252	-326.5550537109376	1106.943969726563	-838.0679321289065	-226.411849975586	773.6597900390627	-1092.487426757813	-207.0788879394532	690.5632324218751	-1095.654296875	-160.7397766113282	686.2668457031251	-1077.527221679688	-242.1480560302735	642.6142578125001	-1091.464111328125	-256.1054077148438	541.6119384765626	-1089.73974609375	-218.639389038086	517.7661743164064	-973.363708496094	-220.0148468017579	396.8523559570314	-1077.6220703125	-284.8352661132813	375.5921630859376	-1128.494384765625	-245.8547058105469	359.7185363769532	-1112.462646484375	-255.6593322753907	276.4108276367188	-1095.671508789063	-354.0046997070313	93.79570770263673	-1118.085205078125	-310.0355529785157	94.34779357910158	-1033.790649414063	-406.477020263672	51.2980422973633	-1059.812377929688	-184.3025512695313	60.1370315551758	-1101.6689453125	-192.3607177734376	60.10668182373048	-1148.606201171875	-252.0993804931641	37.09933090209962	-1189.845458984375	-257.7294006347657	852.4376220703127	-670.4964599609376	-223.0069885253907	797.0472412109377	-656.8486328125001	-190.0442047119141	795.8878173828127	-658.4556274414064	-253.9235229492188	718.2357788085939	-665.6300048828126	-255.716049194336	539.7926635742189	-657.4290771484376	-211.3240203857422	504.9091796875001	-781.1508789062502	-216.4668884277344	319.7823486328126	-702.2799072265626	-265.2418823242188	258.6229553222657	-625.8098144531251	-229.9783630371094	244.5636596679688	-655.2673950195314	-241.0879058837891	195.1969451904297	-681.7443237304689	-311.9764709472657	97.05078887939456	-628.3340454101564	-271.4364624023438	101.4957046508789	-714.5448608398439	-369.4137878417969	50.46936416625978	-689.7314453125001	-152.2025909423828	55.28948211669923	-656.3385009765626	-159.7438659667969	61.53276443481447	-604.9238281250001	-211.391342163086	27.95305442810059	-559.6361694335939	
